<svg xmlns="http://www.w3.org/2000/svg" viewBox="0 0 280 280" fill="none" shape-rendering="auto" aria-hidden="true" width="512" height="512"><!-- Generated by DiceBear (https://dicebear.com) --><metadata xmlns:rdf="http://www.w3.org/1999/02/22-rdf-syntax-ns#" xmlns:xsi="http://www.w3.org/2001/XMLSchema-instance" xmlns:dc="http://purl.org/dc/elements/1.1/" xmlns:dcterms="http://purl.org/dc/terms/"><rdf:RDF><rdf:Description><dc:title>Avataaars</dc:title><dc:creator>Pablo Stanley</dc:creator><dc:source xsi:type="dcterms:URI">https://avataaars.com/</dc:source><dcterms:license xsi:type="dcterms:URI">https://avataaars.com/</dcterms:license><dc:rights>Remix of “Avataaars” (https://avataaars.com/) by “Pablo Stanley”, licensed under “Free for personal and commercial use” (https://avataaars.com/)</dc:rights></rdf:Description></rdf:RDF></metadata><defs><g id="clothes-shirtCrewNeck-587055fe"><path d="M100.5 37.13c18.5 0 33.5-9.61 33.5-21.48q0-.52-.04-1.05A72 72 0 0 1 200 86.36v8.95H0v-8.95a72 72 0 0 1 67.05-71.83q-.05.55-.05 1.12c0 11.87 15 21.48 33.5 21.48" fill="#8bfe62"/><path d="M100.5 44.07c21.89 0 39.63-12.05 39.63-26.92q0-.9-.08-1.79-3-.52-6.1-.76.06.52.05 1.05c0 11.87-15 21.48-33.5 21.48S67 27.52 67 15.65q0-.57.05-1.13-3.08.21-6.08.68-.1.97-.1 1.95c0 14.87 17.74 26.92 39.63 26.92" fill="black" fill-opacity=".08"/></g><g id="mouth-smile-587055fe"><path fill-rule="evenodd" clip-rule="evenodd" d="M27.12 9.13a19 19 0 0 0 37.77-.09c.08-.77-.77-2.04-1.85-2.04H29.1C28 7 27 8.18 27.12 9.13" fill="black" fill-opacity=".7"/><path d="M62 7H31a5 5 0 0 0 5 5h21a5 5 0 0 0 5-5" fill="white"/><path d="M58.7 21.14A11 11 0 0 0 46 19.2a10.95 10.95 0 0 0-12.7 1.94A19 19 0 0 0 46 26c4.88 0 9.33-1.84 12.7-4.86" fill="#FF4F6D"/></g><g id="eyes-surprised-587055fe"><path d="M30 14a14 14 0 1 1-28 0 14 14 0 0 1 28 0m52 0a14 14 0 1 1-28 0 14 14 0 0 1 28 0" fill="white"/><path d="M22 14a6 6 0 1 1-12 0 6 6 0 0 1 12 0m52 0a6 6 0 1 1-12 0 6 6 0 0 1 12 0" fill="black" fill-opacity=".7"/></g><g id="eyebrows-raisedExcitedNatural-587055fe"><path fill-rule="evenodd" clip-rule="evenodd" d="m14.9 1.58.91-.4C21.06-.9 29-.03 33.86 2.3c.57.27.18 1.15-.4 1.1C18.54 2.27 8.5 11.56 5.08 17.86c-.1.18-.4.2-.48.03C2.3 12.56 9.05 3.9 14.9 1.58m66.47 0-.91-.4C75.22-.9 67.27-.03 62.4 2.3c-.56.27-.18 1.15.4 1.1 14.93-1.14 24.98 8.15 28.4 14.45.1.18.4.2.47.03 2.3-5.32-4.45-13.98-10.3-16.3" fill="black" fill-opacity=".6"/></g><g id="top-dreads01-587055fe"><g fill="#4a312c"><path d="M186.7 56.12c.9 3.25 2.17 11.95-.06 14.84-.75.96-5.84-1.74-7.97-2.92l-3.53-1.96c-14.92-8.32-19.74-11-45.9-10.62-28.11.4-47.37 13.58-48.46 14.93-.75.93-1.71 3.44-2.5 10.41-.25 2.2-.32 4.97-.4 7.71-.14 5.98-.3 11.8-2.25 11.8-2.44-.01-2.97-23.78-1.92-33.21q.06-.55.18-1.23c.23-1.4.5-3.13.16-4.11-.16-.44-.54-.7-.94-1-.62-.42-1.26-.87-1.08-2.02.2-1.3 1.1-1.42 1.97-1.55.57-.08 1.13-.16 1.5-.56 1.13-1.23.46-1.87-.31-2.6-.46-.43-.95-.9-1.12-1.53-.63-2.36 1.03-3.1 2.69-3.83l.38-.17c.69-.3 1.1-.42 1.42-.5.6-.15.85-.21 1.89-1.35-2.14-1.56-2.9-3.7 0-4.83.57-.22 1.53-.2 2.5-.2 1.2.02 2.4.03 2.95-.37.15-.11.24-.53.33-.9.06-.27.1-.5.18-.6 1.35-1.93 1.23-3.4 1.08-5.4l-.07-.92c-.13-2.04-.11-3.9 2.33-4.11 1-.08 1.9.4 2.77.86.54.29 1.08.58 1.64.73.87.23 1.1.43 1.32.43.19 0 .37-.15.96-.55 1.18-.82 1.3-2.05 1.43-3.3.1-1.08.22-2.18 1.04-3 1.58-1.6 2.8-.64 4 .3.64.5 1.28 1 1.96 1.1 2.55.36 3.06-1.06 3.62-2.6.32-1 .69-2.05 1.69-2.67 1.84-1.15 2.65-.05 3.44 1 .5.69.98 1.34 1.7 1.4 1 .09 2.52-1.1 3.85-2.13a12 12 0 0 1 2.1-1.44c2.28-.93 3.92.07 5.59 1.08 1.4.86 2.83 1.73 4.65 1.44l.83-.13c2.24-.37 3.1-.51 5.45.96a4.2 4.2 0 0 0 3.74.69c.6-.12 1.3-.25 2.26-.26 1.1 0 1.98.5 2.83.99.7.4 1.36.79 2.13.87.42.04.84-.16 1.26-.36s.84-.4 1.3-.38c1.83.09 2.69 1.49 3.55 2.87.65 1.08 1.32 2.15 2.44 2.66 1.62.72 3.44.24 5.17-.21.79-.2 1.55-.4 2.28-.5 3.96-.46 3.27 1.97 2.55 4.56a11 11 0 0 0-.6 3.26c1.15.27 2.3-.15 3.46-.57 1.1-.4 2.18-.8 3.27-.6 3.4.58 2.25 4.02 1.44 6.45l-.08.2c.65 0 1.55-.2 2.57-.41 2.85-.6 6.6-1.41 7.77 1.13.47 1.05 0 2.3-.44 3.54a7 7 0 0 0-.6 2.4c.01 1.54.7 2.9 1.4 4.28.44.9.9 1.82 1.16 2.78"/><path d="m185.36 73.6.47.33c1.76.99 3.15 10.9 3.22 14.69.04 2.34.08 11.25-2.4 10.48-.75-.23-1.9-4.95-2.06-7.72s-1.74-12.16-4.14-16.49q-.2-.36-.53-.8c-.65-.96-1.44-2.12-.92-2.76.72-.88 1.43-.57 2.26-.2l.44.18c.87.35 2.77 1.68 3.66 2.3"/></g></g><g id="facialHair-beardLight-587055fe"><path fill-rule="evenodd" clip-rule="evenodd" d="M77.43 72.17c-2.52 2.3-5.2 3.32-8.58 2.6-.58-.12-2.95-4.54-8.85-4.54s-8.27 4.42-8.85 4.54c-3.39.72-6.07-.3-8.58-2.6-4.72-4.31-8.65-10.26-6.3-16.75 1.24-3.38 3.24-7.1 6.88-8.17 3.9-1.15 9.35 0 13.26-.8a8.6 8.6 0 0 0 3.6-1.45 9 9 0 0 0 3.57 1.46c3.92.78 9.38-.36 13.27.79 3.64 1.07 5.64 4.79 6.87 8.17 2.36 6.49-1.57 12.44-6.3 16.75M116.08 0c-3.4 8.4-2.1 18.86-2.72 27.68-.52 7.16-2.02 17.9-8.39 22.53-3.25 2.37-9.18 6.35-13.43 5.24-2.93-.76-3.24-9.16-7.08-12.3a22.4 22.4 0 0 0-15.31-4.9c-2.37.11-7.17.1-9.15 1.91-1.98-1.82-6.78-1.8-9.15-1.9a22.4 22.4 0 0 0-15.3 4.9c-3.85 3.13-4.16 11.53-7.1 12.3-4.24 1.1-10.17-2.88-13.42-5.25-6.37-4.62-7.87-15.37-8.4-22.53C6.02 18.86 7.34 8.4 3.93 0c-1.66 0-.57 16.13-.57 16.13v20.36c.04 15.28 9.59 38.17 30.76 46.9 5.18 2.14 16.89 5.6 25.89 5.6 8.98.02 20.71-3.12 25.9-5.26 21.15-8.73 30.7-31.96 30.74-47.23V16.13S117.74 0 116.08 0" fill="#4a312c"/></g><g id="accessories-prescription02-587055fe"><path fill-rule="evenodd" clip-rule="evenodd" d="M32.73 48C11.44 48 3.88 53.1 3.2 53.77a2.9 2.9 0 0 0-2.96 2.89v2.88c0 1.6 1.33 2.9 2.96 2.9 0 0 5.9 0 5.9 2.87q0 .65.19.68a63 63 0 0 0-.05 2.5c0 12.82 8.32 20.5 22.25 20.5h2.73c14.72 0 25-8.45 25-20.5q0-2.28-.17-4.48l1.59-.77q.86-.43 1.89-.64c1.85-.38 3.95-.22 5.99.28.73.18 1.26.35 1.5.45l1.38.55q-.2 2.26-.18 4.6c0 12.84 8.32 20.5 22.25 20.5h2.75c14.72 0 25-8.43 25-20.5q0-2.32-.17-4.56c1.73-1.5 6.22-1.5 6.22-1.5a2.9 2.9 0 0 0 2.95-2.9v-2.88c0-1.6-1.32-2.89-2.95-2.89-.7-.67-8.26-5.77-29.55-5.77h-2.97q-2.68 0-4.97.2c-9.54.53-14.68 2.14-19.92 4.7a17 17 0 0 1-4.56.86 17 17 0 0 1-4.8-.9l-.43-.2v-.02c-4.94-2.42-8.43-4.13-20.78-4.55a61 61 0 0 0-3.6-.1zm-19.5 21.5c0-8.66 0-15.5 19.39-15.5h3.23c19.38 0 19.38 6.84 19.38 15.5 0 9.13-8.63 15.5-21 15.5H31.2c-14.85 0-17.97-8.43-17.97-15.5m62 0c0-8.66 0-15.5 19.39-15.5h3.23c19.38 0 19.38 6.84 19.38 15.5 0 9.13-8.63 15.5-21 15.5H93.2c-14.85 0-17.97-8.43-17.97-15.5" fill="black" fill-opacity=".1"/><path fill-rule="evenodd" clip-rule="evenodd" d="M32.73 46C11.44 46 3.88 51.1 3.2 51.77a2.9 2.9 0 0 0-2.96 2.89v2.88c0 1.6 1.33 2.9 2.96 2.9 0 0 5.9 0 5.9 2.87q0 .67.19.71a63 63 0 0 0-.05 2.51c0 12.83 8.32 20.5 22.25 20.5h2.73c14.72 0 25-8.44 25-20.5q0-2.27-.17-4.47l1.59-.77q.86-.43 1.89-.64c1.85-.38 3.95-.22 5.99.28.73.18 1.26.35 1.5.45l1.38.55q-.2 2.26-.18 4.6c0 12.85 8.32 20.51 22.25 20.51h2.75c14.72 0 25-8.43 25-20.5q0-2.32-.17-4.56c1.73-1.51 6.22-1.51 6.22-1.51a2.9 2.9 0 0 0 2.95-2.89v-2.88c0-1.6-1.32-2.89-2.95-2.89-.7-.67-8.26-5.77-29.55-5.77h-2.97q-2.68 0-4.97.2c-9.54.54-14.68 2.15-19.92 4.7a17 17 0 0 1-4.56.87 17 17 0 0 1-4.8-.9l-.43-.2c-4.94-2.44-8.43-4.15-20.78-4.57a61 61 0 0 0-3.6-.1zm-19.5 21.5c0-8.66 0-15.5 19.39-15.5h3.23c19.38 0 19.38 6.84 19.38 15.5 0 9.13-8.63 15.5-21 15.5H31.2c-14.85 0-17.97-8.43-17.97-15.5m62 0c0-8.66 0-15.5 19.39-15.5h3.23c19.38 0 19.38 6.84 19.38 15.5 0 9.13-8.63 15.5-21 15.5H93.2c-14.85 0-17.97-8.43-17.97-15.5" fill="#262e33"/></g><clipPath id="clip-587055fe"><rect width="280" height="280" rx="0" ry="0"/></clipPath></defs><g clip-path="url(#clip-587055fe)"><path d="M140 36a56 56 0 0 0-56 56v6.17A12 12 0 0 0 74 110v14a12 12 0 0 0 10.3 11.88A56 56 0 0 0 116 180.6V199h-4a72 72 0 0 0-72 72v9h200v-9a72 72 0 0 0-72-72h-4v-18.38a56 56 0 0 0 31.7-44.73A12 12 0 0 0 206 124v-14a12 12 0 0 0-10-11.83V92a56 56 0 0 0-56-56" fill="#ffdbb4"/><path d="M116 180.61v8a56 56 0 0 0 24 5.39 56 56 0 0 0 24-5.39v-8a56 56 0 0 1-24 5.39 56 56 0 0 1-24-5.39" fill="black" fill-opacity=".1"/><use transform="translate(40 184.7)" href="#clothes-shirtCrewNeck-587055fe"/><use transform="translate(94 140)" href="#mouth-smile-587055fe"/><use transform="translate(98 98)" href="#eyes-surprised-587055fe"/><use transform="translate(91.86 82)" href="#eyebrows-raisedExcitedNatural-587055fe"/><use transform="translate(8)" href="#top-dreads01-587055fe"/><use transform="translate(81 98)" href="#facialHair-beardLight-587055fe"/><use transform="translate(75.77 46)" href="#accessories-prescription02-587055fe"/></g></svg>