<svg xmlns="http://www.w3.org/2000/svg" viewBox="0 0 280 280" fill="none" shape-rendering="auto" aria-hidden="true" width="512" height="512"><!-- Generated by DiceBear (https://dicebear.com) --><metadata xmlns:rdf="http://www.w3.org/1999/02/22-rdf-syntax-ns#" xmlns:xsi="http://www.w3.org/2001/XMLSchema-instance" xmlns:dc="http://purl.org/dc/elements/1.1/" xmlns:dcterms="http://purl.org/dc/terms/"><rdf:RDF><rdf:Description><dc:title>Avataaars</dc:title><dc:creator>Pablo Stanley</dc:creator><dc:source xsi:type="dcterms:URI">https://avataaars.com/</dc:source><dcterms:license xsi:type="dcterms:URI">https://avataaars.com/</dcterms:license><dc:rights>Remix of “Avataaars” (https://avataaars.com/) by “Pablo Stanley”, licensed under “Free for personal and commercial use” (https://avataaars.com/)</dc:rights></rdf:Description></rdf:RDF></metadata><defs><g id="clothes-collarAndSweater-650e0288"><path d="M68.37 14.45A28 28 0 0 1 76 6.88v15.3C76 28 79.98 33.16 86.08 36.3l-.08.06.9 2.87c3.89 2 8.35 3.13 13.1 3.13s9.21-1.14 13.1-3.13l.9-2.87-.08-.06C120.02 33.16 124 28 124 22.18V7.58a27 27 0 0 1 6.6 6.82A72 72 0 0 1 200 86.36v8.95H0v-8.95a72 72 0 0 1 68.37-71.91" fill="#5199e4"/><path d="M76 6.88c-6.77 4.6-11 11.17-11 18.45 0 7.4 4.36 14.06 11.3 18.67l6.12-4.82 4.58.33-1-3.15.08-.06C79.98 33.16 76 28 76 22.18zm48 15.3c0 5.83-3.98 10.98-10.08 14.12l.08.06-1 3.15 4.58-.33 5.65 4.45c6.63-4.6 10.77-11.1 10.77-18.3 0-6.92-3.82-13.19-10-17.74z" fill="white" fill-opacity=".75"/></g><g id="mouth-tongue-650e0288"><path fill-rule="evenodd" clip-rule="evenodd" d="M21 9.6C22.41 19.24 33.06 27 46 27c12.97 0 23.65-7.82 25-18.26.1-.4-.22-1.74-2.17-1.74H23.17c-1.79 0-2.3 1.24-2.17 2.6" fill="black" fill-opacity=".7"/><path d="M62 7H31a5 5 0 0 0 5 5h21a5 5 0 0 0 5-5" fill="white"/><path d="M35 17.5v9a11.5 11.5 0 1 0 23 0v-9c0-1.93-2.91-3.5-6.5-3.5-2.01 0-3.8.5-5 1.26a9.5 9.5 0 0 0-5-1.26c-3.59 0-6.5 1.57-6.5 3.5" fill="#FF4F6D"/></g><g id="eyes-squint-650e0288"><path d="M30 12.73c0 4.26-6.27 7.72-14 7.72S2 17 2 12.73 8.27 5 16 5s14 3.46 14 7.73m52 0c0 4.26-6.27 7.72-14 7.72S54 17 54 12.73 60.27 5 68 5s14 3.46 14 7.73" fill="white"/><path d="M18.82 20.3a25 25 0 0 1-5.64 0 6 6 0 1 1 5.64 0m52 0a25 25 0 0 1-5.64 0 6 6 0 1 1 5.64 0" fill="black" fill-opacity=".7"/></g><g id="eyebrows-default-650e0288"><path d="M7.77 17.16c3.91-5.51 14.64-8.6 23.89-6.33a2 2 0 0 0 .95-3.88c-10.73-2.64-23.16.94-28.1 7.9a2 2 0 0 0 3.3 2.3m80.73.01c-3.9-5.5-14.64-8.6-23.9-6.33a2 2 0 0 1-.94-3.88c10.74-2.64 23.17.94 28.1 7.9a2 2 0 0 1-3.25 2.3" fill="black" fill-opacity=".6"/></g><g id="top-shortCurly-650e0288"><path fill-rule="evenodd" clip-rule="evenodd" d="M192.77 70.77a63 63 0 0 0-1.52-9.86 52 52 0 0 0-2.5-7.49c-.6-1.48-2.02-3.52-2.19-5.13-.16-1.57 1.07-3.32 1.33-5.16.21-1.8.2-3.66-.2-5.44-.83-4.06-3.6-7.81-7.85-8.85-.95-.23-2.97.06-3.64-.5-.77-.63-1.3-2.8-2-3.67-2-2.47-5.1-4.07-8.37-3.51-2.4.4-1.03.9-2.84-.51-1-.8-1.75-2-2.73-2.85a25 25 0 0 0-4.9-3.28 51 51 0 0 0-14.85-4.91c-9.28-1.52-19.2-.2-28.2 2.22a75 75 0 0 0-13.14 4.74c-1.78.87-2.8 1.58-4.67 1.8-2.93.37-5.4.35-8.18 1.59-8.54 3.82-12.39 12.69-9.06 21.17a15 15 0 0 0 2.82 4.59c1.52 1.68 2.07 1.35.76 3.28a53 53 0 0 0-4.96 9.17C72.36 66.58 71.77 76.04 72 85c.08 3.13.22 6.3.71 9.42.22 1.34.28 3.87 1.3 4.87.51.5 1.24.78 1.96.58 1.7-.47 1.12-1.73 1.16-2.9.2-5.88-.08-11.08 1.32-16.9a44 44 0 0 1 5-12.03 72 72 0 0 1 9.8-13.35c.92-1.01 1.12-1.41 2.35-1.5.93-.04 2.3.6 3.2.8 2 .5 4 .99 6.03 1.3 3.74.6 7.45.66 11.22.54 7.43-.23 14.88-.75 22.1-2.62 4.77-1.24 9.01-3.47 13.6-5.1.07-.04 1.22-.85 1.42-.82.28.04 1.97 1.82 2.26 2.05 2.23 1.74 4.67 2.48 7.07 3.83 2.97 1.66.1-.72 1.73 1.36.48.6.72 1.72 1.1 2.4 1.22 2.2 2.9 4.1 4.93 5.63 1.95 1.47 4.89 2.18 5.89 4.1.76 1.47 1.02 3.48 1.64 5.06 1.63 4.13 3.78 7.99 5.93 11.88 1.73 3.14 3.62 5.89 3.8 9.47.08 1.25-1.11 8.74 1.79 6.46.43-.34 1.35-4.15 1.54-4.8.77-2.63 1.05-5.38 1.4-8.1.69-5.37.92-10.5.46-15.9" fill="#2c1b18"/></g><g id="facialHair-beardLight-650e0288"><path fill-rule="evenodd" clip-rule="evenodd" d="M77.43 72.17c-2.52 2.3-5.2 3.32-8.58 2.6-.58-.12-2.95-4.54-8.85-4.54s-8.27 4.42-8.85 4.54c-3.39.72-6.07-.3-8.58-2.6-4.72-4.31-8.65-10.26-6.3-16.75 1.24-3.38 3.24-7.1 6.88-8.17 3.9-1.15 9.35 0 13.26-.8a8.6 8.6 0 0 0 3.6-1.45 9 9 0 0 0 3.57 1.46c3.92.78 9.38-.36 13.27.79 3.64 1.07 5.64 4.79 6.87 8.17 2.36 6.49-1.57 12.44-6.3 16.75M116.08 0c-3.4 8.4-2.1 18.86-2.72 27.68-.52 7.16-2.02 17.9-8.39 22.53-3.25 2.37-9.18 6.35-13.43 5.24-2.93-.76-3.24-9.16-7.08-12.3a22.4 22.4 0 0 0-15.31-4.9c-2.37.11-7.17.1-9.15 1.91-1.98-1.82-6.78-1.8-9.15-1.9a22.4 22.4 0 0 0-15.3 4.9c-3.85 3.13-4.16 11.53-7.1 12.3-4.24 1.1-10.17-2.88-13.42-5.25-6.37-4.62-7.87-15.37-8.4-22.53C6.02 18.86 7.34 8.4 3.93 0c-1.66 0-.57 16.13-.57 16.13v20.36c.04 15.28 9.59 38.17 30.76 46.9 5.18 2.14 16.89 5.6 25.89 5.6 8.98.02 20.71-3.12 25.9-5.26 21.15-8.73 30.7-31.96 30.74-47.23V16.13S117.74 0 116.08 0" fill="#2c1b18"/></g><clipPath id="clip-650e0288"><rect width="280" height="280" rx="0" ry="0"/></clipPath></defs><g clip-path="url(#clip-650e0288)"><path d="M140 36a56 56 0 0 0-56 56v6.17A12 12 0 0 0 74 110v14a12 12 0 0 0 10.3 11.88A56 56 0 0 0 116 180.6V199h-4a72 72 0 0 0-72 72v9h200v-9a72 72 0 0 0-72-72h-4v-18.38a56 56 0 0 0 31.7-44.73A12 12 0 0 0 206 124v-14a12 12 0 0 0-10-11.83V92a56 56 0 0 0-56-56" fill="#edb98a"/><path d="M116 180.61v8a56 56 0 0 0 24 5.39 56 56 0 0 0 24-5.39v-8a56 56 0 0 1-24 5.39 56 56 0 0 1-24-5.39" fill="black" fill-opacity=".1"/><use transform="translate(40 184.7)" href="#clothes-collarAndSweater-650e0288"/><use transform="translate(94 140)" href="#mouth-tongue-650e0288"/><use transform="translate(98 98)" href="#eyes-squint-650e0288"/><use transform="translate(91.86 82)" href="#eyebrows-default-650e0288"/><use transform="translate(8)" href="#top-shortCurly-650e0288"/><use transform="translate(81 98)" href="#facialHair-beardLight-650e0288"/></g></svg>